<?xml version="1.0" encoding="UTF-8"?>
<svg id="Calque_1" xmlns="http://www.w3.org/2000/svg" version="1.1" viewBox="0 0 138.96 73.14">
  <!-- Generator: Adobe Illustrator 29.5.0, SVG Export Plug-In . SVG Version: 2.1.0 Build 137)  -->
  <defs>
    <style>
      .st0 {
        fill: #484e48;
      }
    </style>
  </defs>
  <path class="st0" d="M14.89,61.67h23.78v11.47H.41V1.03h14.47v60.64Z"/>
  <path class="st0" d="M83.44,69.11c-5.65-3.17-10.13-7.56-13.44-13.17-3.31-5.61-4.96-11.96-4.96-19.06s1.65-13.34,4.96-18.96c3.31-5.61,7.79-10,13.44-13.17,5.65-3.17,11.85-4.75,18.61-4.75s13.05,1.58,18.66,4.75c5.62,3.17,10.06,7.56,13.34,13.17,3.27,5.62,4.91,11.93,4.91,18.96s-1.64,13.45-4.91,19.06c-3.28,5.62-7.74,10-13.39,13.17-5.65,3.17-11.86,4.75-18.61,4.75s-12.96-1.58-18.61-4.75ZM113.52,58.01c3.31-1.96,5.89-4.77,7.76-8.42,1.86-3.65,2.79-7.89,2.79-12.71s-.93-9.04-2.79-12.66c-1.86-3.62-4.45-6.39-7.76-8.31-3.31-1.93-7.13-2.89-11.48-2.89s-8.18.96-11.53,2.89-5.94,4.7-7.8,8.31c-1.86,3.62-2.79,7.84-2.79,12.66s.93,9.05,2.79,12.71c1.86,3.65,4.46,6.46,7.8,8.42s7.19,2.94,11.53,2.94,8.17-.98,11.48-2.94Z"/>
</svg>