<?xml version="1.0" encoding="UTF-8"?>
<svg id="Calque_1" xmlns="http://www.w3.org/2000/svg" version="1.1" viewBox="0 0 500 73.14">
  <!-- Generator: Adobe Illustrator 29.5.0, SVG Export Plug-In . SVG Version: 2.1.0 Build 137)  -->
  <defs>
    <style>
      .st0 {
        fill: #484e48;
      }
    </style>
  </defs>
  <path class="st0" d="M14.89,61.67h23.78v11.47H.41V1.03h14.47v60.64Z"/>
  <path class="st0" d="M83.44,69.11c-5.65-3.17-10.13-7.56-13.44-13.17-3.31-5.61-4.96-11.96-4.96-19.06s1.65-13.34,4.96-18.96c3.31-5.61,7.79-10,13.44-13.17,5.65-3.17,11.85-4.75,18.61-4.75s13.05,1.58,18.66,4.75c5.62,3.17,10.06,7.56,13.34,13.17,3.27,5.62,4.91,11.93,4.91,18.96s-1.64,13.45-4.91,19.06c-3.28,5.62-7.74,10-13.39,13.17-5.65,3.17-11.86,4.75-18.61,4.75s-12.96-1.58-18.61-4.75ZM113.52,58.01c3.31-1.96,5.89-4.77,7.76-8.42,1.86-3.65,2.79-7.89,2.79-12.71s-.93-9.04-2.79-12.66c-1.86-3.62-4.45-6.39-7.76-8.31-3.31-1.93-7.13-2.89-11.48-2.89s-8.18.96-11.53,2.89-5.94,4.7-7.8,8.31c-1.86,3.62-2.79,7.84-2.79,12.66s.93,9.05,2.79,12.71c1.86,3.65,4.46,6.46,7.8,8.42s7.19,2.94,11.53,2.94,8.17-.98,11.48-2.94Z"/>
  <path class="st0" d="M249.07,1.03v72.11h-14.48V26.24l-19.33,46.9h-10.96l-19.44-46.9v46.9h-14.47V1.03h16.44l22.95,53.62L232.73,1.03h16.34Z"/>
  <path class="st0" d="M334.99,42.25c2.62,3.3,3.93,7.09,3.93,11.36,0,3.86-.95,7.25-2.84,10.18-1.9,2.93-4.64,5.22-8.22,6.87s-7.83,2.48-12.72,2.48h-31.12V1.03h29.78c4.89,0,9.11.79,12.66,2.38s6.24,3.79,8.06,6.61,2.74,6.03,2.74,9.61c0,4.2-1.12,7.71-3.36,10.53-2.24,2.82-5.22,4.82-8.94,5.99,4.06.76,7.41,2.79,10.03,6.1ZM298.49,30.79h13.24c3.45,0,6.1-.77,7.96-2.32,1.86-1.55,2.79-3.77,2.79-6.66s-.93-5.13-2.79-6.72c-1.86-1.58-4.51-2.38-7.96-2.38h-13.24v18.08ZM321.29,58.89c1.96-1.66,2.95-4,2.95-7.03s-1.03-5.52-3.1-7.28c-2.07-1.76-4.86-2.64-8.38-2.64h-14.27v19.42h14.58c3.51,0,6.25-.82,8.22-2.48Z"/>
  <path class="st0" d="M408.4,73.14l-15.92-28.1h-6.82v28.1h-14.47V1.03h27.09c5.58,0,10.34.98,14.27,2.94s6.87,4.62,8.84,7.96c1.96,3.34,2.95,7.07,2.95,11.21,0,4.75-1.38,9.04-4.14,12.86-2.76,3.82-6.86,6.46-12.31,7.9l17.27,29.24h-16.75ZM385.65,34.2h12.1c3.93,0,6.86-.95,8.79-2.84,1.93-1.89,2.89-4.53,2.89-7.9s-.97-5.87-2.89-7.7c-1.93-1.82-4.86-2.74-8.79-2.74h-12.1v21.18Z"/>
  <path class="st0" d="M472.6,12.71v18.08h24.3v11.47h-24.3v19.11h27.4v11.78h-41.87V.93h41.87v11.78h-27.4Z"/>
</svg>